<svg width="605" height="161" viewBox="0 0 605 161" fill="none" xmlns="http://www.w3.org/2000/svg">
<path d="M108.078 159H72.8283L63.3783 128.1H61.7283V159H31.2783V65.85H61.7283V102.75H63.3783L75.2283 65.85H109.578L90.2283 114.3L108.078 159ZM192.492 159H160.992L157.992 144.6H141.342L138.192 159H108.042L127.392 65.85H173.142L192.492 159ZM155.742 125.25L150.042 94.05H149.442L143.592 125.25H155.742ZM272.213 95.85C272.213 101.85 271.213 106.65 269.213 110.25C267.313 113.75 264.313 116.85 260.213 119.55L274.163 159H241.013L231.713 126.9H229.313V159H198.563V65.85H238.313C249.913 65.85 258.463 68.3 263.963 73.2C269.463 78 272.213 85.55 272.213 95.85ZM232.463 108.6C234.763 108.6 236.363 107.95 237.263 106.65C238.263 105.25 238.763 102.85 238.763 99.45C238.763 96.05 238.263 93.7 237.263 92.4C236.263 91.1 234.713 90.45 232.613 90.45H228.713V108.6H232.463ZM361.535 159H330.035L327.035 144.6H310.385L307.235 159H277.085L296.435 65.85H342.185L361.535 159ZM324.785 125.25L319.085 94.05H318.485L312.635 125.25H324.785ZM364.606 111.9C364.606 95.2 367.906 83.1 374.506 75.6C381.206 68.1 392.156 64.35 407.356 64.35C422.656 64.35 433.556 68.05 440.056 75.45C446.656 82.85 449.956 94.9 449.956 111.6C449.956 128.2 446.556 140.5 439.756 148.5C433.056 156.5 422.156 160.5 407.056 160.5C392.056 160.5 381.206 156.55 374.506 148.65C367.906 140.75 364.606 128.5 364.606 111.9ZM415.756 94.05C414.456 91.45 411.656 90.15 407.356 90.15C403.056 90.15 400.306 91.4 399.106 93.9C397.906 96.4 397.306 101.75 397.306 109.95V116.55C397.306 124.95 397.956 130.4 399.256 132.9C400.556 135.4 403.406 136.65 407.806 136.65C412.206 136.65 414.956 135.45 416.056 133.05C417.156 130.65 417.706 125.3 417.706 117V110.1C417.706 101.9 417.056 96.55 415.756 94.05ZM535.813 159H500.563L491.113 128.1H489.463V159H459.013V65.85H489.463V102.75H491.113L502.963 65.85H537.313L517.963 114.3L535.813 159ZM601.176 159H541.776V65.85H603.276L601.176 90.6H573.876V101.85H597.726V123.45H573.876V136.2H603.276L601.176 159Z" fill="#FEB42B"/>
<path d="M160.776 55.8691C160.776 56.8359 160.293 57.876 159.326 58.9893C158.535 59.8389 157.905 60.2637 157.437 60.2637C157.378 60.2637 157.173 60.2051 156.821 60.0879L156.03 60.6152C155.386 61.1133 154.873 61.3623 154.492 61.3623L153.789 61.2744L153.877 60.1758L154.229 57.6709L154.141 55.8691L154.932 50.5518L154.492 48.2227L154.229 43.0811L153.965 41.2793L154.053 36.8848L153.877 33.9844L154.053 32.2705L153.394 26.6016L153.965 25.459L153.218 25.1514V24.0967L152.603 21.46L152.69 18.9551L152.251 17.9004L151.152 18.1641L150.801 18.6914L150.977 19.9658L148.647 23.4814L148.56 24.4482L147.812 25.1514L147.373 26.3379L146.758 27.2607L146.494 28.8428L145.308 31.4795L145.132 32.4463C144.165 33.2373 143.506 33.9551 143.154 34.5996L141.704 37.8516L137.749 44.6191L134.937 49.8486L134.233 50.9033L131.641 53.3203C131.318 53.584 131.157 53.833 131.157 54.0674C131.157 54.0674 131.172 54.082 131.201 54.1113C131.23 54.1406 131.26 54.1846 131.289 54.2432C131.465 54.9463 131.553 55.4004 131.553 55.6055L131.465 56.0449C130.908 56.1328 130.498 56.3086 130.234 56.5723C130 56.8066 129.78 57.2021 129.575 57.7588C129.194 58.7842 128.872 59.502 128.608 59.9121C128.374 60.293 128.052 60.5859 127.642 60.791C127.261 60.9961 126.675 61.1865 125.884 61.3623C125.122 60.5127 124.683 59.9561 124.565 59.6924C124.448 59.4287 124.346 58.9893 124.258 58.374L123.906 58.0225C123.906 57.4072 123.54 56.9238 122.808 56.5723L122.456 56.9238L121.797 55.7812L120.742 52.8809L119.819 51.6504L118.853 48.9258L117.754 47.2998C118.135 46.5967 118.325 45.9375 118.325 45.3223C118.325 44.8535 118.223 44.5312 118.018 44.3555L116.611 43.1689L111.118 32.2705L109.756 29.4141H109.844L110.107 28.2275L109.404 26.7773L109.141 25.459L108.218 25.8984L107.69 24.9756C106.782 23.4229 106.211 22.3535 105.977 21.7676C105.742 21.1816 105.449 20.3027 105.098 19.1309C104.336 19.1309 103.853 18.8965 103.647 18.4277L102.988 19.8779H102.285L102.109 20.2295C102.52 20.8447 102.725 21.4453 102.725 22.0312L102.461 25.3711C102.432 25.8984 102.388 26.3232 102.329 26.6455C102.3 26.9385 102.227 27.1729 102.109 27.3486C102.021 27.4951 101.816 27.7881 101.494 28.2275L102.549 30.3809L102.373 31.4795L102.285 34.5996L102.021 36.4893L102.285 45.9814L101.758 47.3877C102.168 48.2373 102.373 49.0869 102.373 49.9365V50.2881V50.8154C101.611 50.9033 101.113 51.0938 100.879 51.3867C100.645 51.6797 100.483 52.2656 100.396 53.1445L102.021 53.7158L102.109 54.6826V55.6934C102.109 56.5723 101.992 57.1143 101.758 57.3193L98.418 59.5605L96.792 60.8789L96.1768 61.0107L95.2539 60.8789L95.166 60.3516L94.9902 59.5605L95.8252 57.4951V53.2324L96.5283 47.959L96.4404 45.1465L96.3525 44.1797L96.5283 42.8174L96.4404 41.7188C96.8799 41.3965 97.1436 40.9131 97.2314 40.2686L97.7148 40.0049C97.627 39.4482 97.5244 39.0967 97.4072 38.9502L96.8799 37.8516C96.8799 37.7051 96.8652 37.5879 96.8359 37.5C96.8359 37.4121 96.8213 37.3242 96.792 37.2363C96.792 36.7969 97.041 36.3135 97.5391 35.7861C97.041 34.9365 96.792 34.1895 96.792 33.5449V33.2812L97.0557 27.876L96.792 23.1738L96.8799 22.207L98.3301 22.6465C98.623 22.2656 98.7695 21.9434 98.7695 21.6797V21.3721L96.792 21.1963L96.6162 19.043L98.0664 18.9551L98.2422 18.0762C98.2422 17.5488 97.8174 17.124 96.9678 16.8018L96.5283 14.3848H96.9678L97.0557 13.8135L96.3525 9.50684L96.4404 7.44141L95.6494 5.72754C95.6494 5.1416 96.1768 4.59961 97.2314 4.10156L98.0664 4.27734L98.5938 3.13477L99.5166 2.73926L101.494 1.24512C101.934 0.922852 102.314 0.761719 102.637 0.761719L103.56 0.981445C103.589 1.53809 103.677 1.94824 103.823 2.21191C103.999 2.44629 104.351 2.69531 104.878 2.95898C104.937 3.33984 105.024 3.69141 105.142 4.01367C105.259 4.30664 105.449 4.67285 105.713 5.1123C106.006 5.55176 106.401 6.18164 106.899 7.00195L106.504 7.96875L106.064 9.41895L106.24 9.94629L107.603 10.6055L108.657 13.9014L107.778 15.2637L108.306 15.5273L108.657 16.4502C109.536 16.5088 110.269 17.0508 110.854 18.0762L112.261 21.1963L113.887 25.8105C113.125 26.4844 112.744 27.0264 112.744 27.4365L113.184 28.4912L114.15 28.5791C114.648 28.6377 114.971 28.7402 115.117 28.8867C115.264 29.0332 115.425 29.3555 115.601 29.8535L114.81 31.1279C115.132 31.5381 115.425 31.7432 115.688 31.7432H116.216L116.787 32.5342C117.93 34.6729 118.501 35.9619 118.501 36.4014L118.149 37.7637L117.842 38.7744L118.677 39.2139L119.556 39.3896L120.566 40.752L122.28 42.5537L122.72 44.2676L123.687 45.1465L124.873 48.0469L125.884 49.1016L127.29 51.9141L128.037 52.5293L129.092 51.5186L132.256 47.959L133.882 45.1465L135.332 42.4658L137.485 38.7744L141.528 29.3262L143.154 26.8652L143.594 24.0967L145.835 19.043L146.187 17.6807L146.758 17.5049L147.285 17.0654V16.7139L147.988 16.3623L147.9 15.6152L147.109 15.2637C147.344 14.0332 147.637 13.3154 147.988 13.1104L148.823 12.7588L149.614 12.0996C149.263 11.4844 148.823 10.8252 148.296 10.1221C148.765 9.47754 148.999 8.9502 148.999 8.54004C148.999 8.33496 148.97 8.17383 148.911 8.05664L149.702 7.17773L151.064 5.1123L153.657 2.95898C154.771 1.99219 155.444 1.50879 155.679 1.50879L156.733 1.77246L156.47 4.76074L156.821 5.1123L157.656 5.02441C158.477 5.02441 158.887 5.25879 158.887 5.72754L158.799 7.44141L158.447 8.8916L157.92 8.71582L157.744 9.50684L158.359 11.1328L158.535 20.4932V20.9326C158.535 21.4014 158.418 21.7969 158.184 22.1191L156.997 23.7451C156.88 23.8623 156.821 24.2139 156.821 24.7998C157.056 25.1514 157.29 25.3857 157.524 25.5029C157.759 25.5908 158.125 25.6348 158.623 25.6348L158.711 27.2607L158.535 34.5117L159.238 37.6758L159.634 43.1689L159.985 46.8604C159.985 47.3584 159.868 47.959 159.634 48.6621C160.015 49.1309 160.249 49.5264 160.337 49.8486C160.425 50.1709 160.513 51.0059 160.601 52.3535L160.776 55.7812V55.8691ZM245.854 30.9082C245.854 31.1133 245.825 31.2744 245.767 31.3916L244.976 33.9844L245.063 36.2256L244.404 37.4121C244.287 37.3535 244.082 37.3242 243.789 37.3242C243.613 37.3242 243.452 37.4707 243.306 37.7637C243.159 38.0566 243.086 38.3936 243.086 38.7744C243.086 38.8916 243.115 38.9795 243.174 39.0381C243.76 40.0049 244.053 40.6348 244.053 40.9277C244.053 41.1621 243.994 41.3672 243.877 41.543C243.262 42.1289 242.837 42.7881 242.603 43.5205L241.636 43.96L241.899 44.2676L241.636 44.5312L242.339 45.0586L242.251 45.3223L241.46 46.0693L240.449 47.7393L239.746 48.4863C239.336 48.0762 238.999 47.8711 238.735 47.8711C238.208 47.8711 237.944 48.1641 237.944 48.75C237.944 48.9844 238.179 49.4092 238.647 50.0244C237.739 51.5479 236.245 52.9541 234.165 54.2432C231.997 55.6201 229.756 56.8652 227.441 57.9785C225.127 59.0918 223.34 59.7656 222.08 60L221.201 60.1758C219.004 60.5859 217.627 60.791 217.07 60.791H216.895L215.181 60.7031L214.082 60.8789L212.456 59.9121L211.226 60.4395C210.669 60.8203 210.273 61.0107 210.039 61.0107H209.688C209.453 60.4541 209.219 60.0586 208.984 59.8242C208.75 59.5605 208.384 59.3262 207.886 59.1211C206.069 60.0586 204.663 60.5273 203.667 60.5273C203.315 60.5273 202.979 60.4102 202.656 60.1758C202.012 60.1758 201.66 60.1465 201.602 60.0879L198.525 59.209L195.933 59.2969L194.922 58.4619L193.472 58.6377L192.241 58.4619L190.439 57.9346L184.858 56.6602L183.32 55.4297L181.343 54.6826L179.277 52.5293C178.809 52.1777 178.12 52.002 177.212 52.002L176.025 50.6396C176.26 50.083 176.377 49.6582 176.377 49.3652C176.377 48.457 175.293 47.8271 173.125 47.4756V47.124L172.598 46.9482L172.07 45.9814L171.631 45.498V44.5312L170.708 41.8945L170.532 41.0156L169.829 37.1484L170.093 33.3691L170.444 32.2705L170.708 29.8535L172.861 24.1846L173.125 23.1738C173.74 21.6504 174.707 20.5225 176.025 19.79V19.2188L178.267 16.7139C178.618 16.8311 178.823 16.8896 178.882 16.8896C179.321 16.8896 179.629 16.7139 179.805 16.3623L180.42 14.4727L181.255 13.374C181.577 12.7295 182.017 12.2461 182.573 11.9238L183.936 11.3086L185.122 9.8584L187.891 7.96875C189.736 6.76758 190.791 6.16699 191.055 6.16699L191.758 6.43066L192.944 5.02441L193.735 4.84863L202.041 1.59668C202.51 1.3623 203.081 1.24512 203.755 1.24512C204.37 1.24512 205.117 1.4209 205.996 1.77246L206.699 1.50879L206.963 0.673828L208.237 0.849609L208.94 0.981445H209.16L211.313 0.410156L214.741 0.585938L216.411 0.234375L217.861 0.410156L219.224 0.322266L220.762 0.849609L223.354 1.33301L225.244 2.3877L230.649 4.36523L231.177 4.84863L232.188 5.46387V5.90332L232.012 5.99121C231.777 6.22559 231.66 6.44531 231.66 6.65039C231.66 6.85547 231.982 7.14844 232.627 7.5293L232.803 7.17773C233.477 7.17773 233.989 7.5 234.341 8.14453C234.341 8.81836 234.399 9.27246 234.517 9.50684C234.634 9.71191 234.912 10.0195 235.352 10.4297C235.791 10.166 236.201 10.0342 236.582 10.0342C237.344 10.0342 237.974 10.3418 238.472 10.957L239.219 11.9238L240.801 13.374L241.021 14.3848L242.075 15.7031L242.339 16.8896C241.87 17.5049 241.636 18.0176 241.636 18.4277C241.636 18.6035 241.665 18.75 241.724 18.8672L244.404 21.5918L244.58 22.5586L245.327 24.624C245.327 24.7119 245.269 25.0781 245.151 25.7227L244.492 26.0742V26.5137L245.239 26.6016L245.415 27.6123L245.854 30.9082ZM238.823 23.4814C238.823 22.1631 237.988 21.3721 236.318 21.1084L236.055 18.6914L233.901 15.3516L233.55 13.9893L232.979 13.9014L232.188 12.9346L230.21 10.6055L228.408 9.41895L226.606 7.96875L225.771 7.70508L225.244 6.73828H224.365C223.545 6.73828 222.915 6.57715 222.476 6.25488L218.608 4.10156L214.741 3.57422L211.929 3.04688L209.248 3.13477H207.183L204.985 3.75L203.008 4.01367L201.03 5.2002L199.976 4.93652H199.888L198.789 5.28809L193.911 7.96875L192.769 8.14453C191.948 9.31641 191.23 10.0049 190.615 10.21L189.429 10.6934L185.562 14.4727L184.858 15C183.804 15.791 182.72 17.2266 181.606 19.3066L181.167 20.1416L180.244 20.3174L179.805 21.1963L179.277 23.4814L178.706 24.0967L178.442 24.9756L176.641 24.7119C176.494 25.21 176.333 25.5469 176.157 25.7227C176.011 25.8691 175.732 26.0449 175.322 26.25L175.19 26.6895C176.274 27.3633 176.816 28.0225 176.816 28.667L176.729 31.7432L177.388 36.2256L177.3 37.3242L178.706 39.6533C178.003 40.0928 177.651 40.5176 177.651 40.9277C177.651 41.1914 177.783 41.4551 178.047 41.7188C178.34 41.9531 178.691 42.0703 179.102 42.0703C179.248 42.041 179.365 42.0264 179.453 42.0264C179.57 41.9971 179.746 41.9824 179.98 41.9824L181.606 43.96C181.255 44.4873 181.079 44.8242 181.079 44.9707L181.431 45.6738H181.782L183.584 47.3877L185.913 48.6621L189.165 51.3428L191.67 51.8262L193.032 53.2324L197.603 54.9463L201.382 56.5723L202.656 56.4844L210.742 57.6709L212.017 57.7588L213.027 57.6709L214.741 57.2314L219.136 57.4951L221.025 57.0996L224.365 55.7812L225.596 55.4297L226.255 55.957C227.163 55.6934 227.661 55.415 227.749 55.1221L228.145 53.7158L232.539 49.9365L234.341 46.7725L235.044 45.498H235.615L236.143 44.3555L235.879 43.8721L236.143 43.0811L236.318 39.4775L237.021 37.7637L237.241 36.4893L237.856 36.0498L238.296 33.3691C237.71 32.3145 237.417 31.4941 237.417 30.9082V30.8203L237.593 26.6016L237.505 25.2393C238.384 24.6826 238.823 24.0967 238.823 23.4814ZM311.113 58.4619L310.146 59.1211L309.048 59.9121L307.422 60.3516L304.302 61.4502C303.423 61.6846 302.485 61.8018 301.489 61.8018H299.951C298.984 60.3662 298.413 59.6191 298.237 59.5605L295.996 58.1982L294.941 57.3193L294.37 56.6602C293.608 55.7227 293.228 55.2393 293.228 55.21L292.832 52.7051L291.162 52.0898L289.712 49.9365L287.998 49.2773L286.987 47.8711L286.284 47.6514L285.669 46.9482L284.219 45.7617L283.384 44.7949L282.153 44.0918L280.615 42.29L279.692 41.3672C279.839 40.9863 279.912 40.6641 279.912 40.4004C279.912 39.7266 279.663 39.3311 279.165 39.2139L277.012 38.7744L276.396 38.0273L273.848 36.1377L272.617 34.248L271.079 33.457L269.805 32.2705L268.662 31.8311L265.85 29.6777L264.971 29.4141L264.663 30.5566L264.224 31.6553L264.136 33.7207C264.546 33.9551 264.751 34.248 264.751 34.5996C264.751 34.9219 264.722 35.1416 264.663 35.2588L264.312 36.3135L264.136 38.8623L263.96 40.8398L264.136 42.0703L263.784 43.1689L264.399 44.2676L264.312 45.1465L264.048 47.4756L264.136 48.9258L265.059 56.0449V56.3086C265.059 56.8652 264.868 57.3193 264.487 57.6709L263.608 58.4619L262.861 59.1211H261.367C260.869 59.1211 260.415 59.3262 260.005 59.7363L257.676 61.626C257.559 61.7432 257.28 61.8018 256.841 61.8018C256.255 61.8018 255.962 61.626 255.962 61.2744C255.962 61.0693 256.313 60.1904 257.017 58.6377C257.339 58.0811 257.5 57.334 257.5 56.3965L257.588 53.4082L258.115 51.9141L257.852 48.6621L258.291 47.8711L258.994 47.959C259.375 47.959 259.639 47.8418 259.785 47.6074C259.932 47.3438 260.005 46.8604 260.005 46.1572L259.39 45.5859C258.716 45.0879 258.379 44.5166 258.379 43.8721L258.643 42.1582L258.203 41.6309L258.115 40.1807L258.203 38.2031L258.555 34.8193L258.203 30.5566L258.467 28.4912L257.939 27.3486C258.027 26.9385 258.569 26.5723 259.565 26.25V24.624C259.155 24.0967 258.76 23.833 258.379 23.833L258.291 21.8555L258.115 18.4277L258.379 16.7139C257.998 16.0107 257.734 15.4102 257.588 14.9121C257.471 14.4141 257.412 13.6963 257.412 12.7588V12.4951V10.7812L257.104 10.5176L257.412 7.26562C257.412 6.41602 257.134 5.58105 256.577 4.76074L254.863 3.75L255.039 2.56348L255.962 2.2998L256.577 2.03613C258.452 1.27441 260.312 0.849609 262.158 0.761719L265.322 0.585938L266.685 0.410156C267.271 0.966797 267.71 1.24512 268.003 1.24512H268.091L272.529 0.410156L273.496 0.981445C273.584 0.981445 273.643 0.996094 273.672 1.02539C273.73 1.02539 273.789 1.04004 273.848 1.06934L274.946 0.981445L278.022 1.06934H284.219L288.877 1.86035L291.865 2.03613L294.282 3.31055L297.007 4.10156C298.003 4.39453 298.75 4.96582 299.248 5.81543C299.775 6.63574 300.039 7.63184 300.039 8.80371C300.039 9.8584 299.775 11.1182 299.248 12.583L297.71 12.3193C297.798 13.0518 298.062 13.5498 298.501 13.8135L298.062 14.8242L297.095 15.791L296.523 16.5381C296.406 16.6553 295.938 16.7139 295.117 16.7139C295 16.8896 294.941 17.0947 294.941 17.3291L295.293 18.0762L294.722 18.7793L293.755 19.3066L291.777 21.5918L290.327 22.1191L288.877 23.0859L287.998 23.1738C287.734 23.9648 287.31 24.5068 286.724 24.7998L285.669 25.2393L284.307 25.7227H283.208L281.055 26.4258L280.439 26.5137H280.088L278.813 27.5244C278.55 27.3486 278.315 27.2607 278.11 27.2607C277.905 27.2607 277.715 27.3193 277.539 27.4365C277.48 27.5537 277.451 27.6709 277.451 27.7881C277.451 28.0518 277.671 28.374 278.11 28.7549L277.803 29.502C277.217 30 276.924 30.3809 276.924 30.6445C276.924 30.6738 276.982 30.835 277.1 31.1279H278.022C278.374 30.7471 278.813 30.5273 279.341 30.4688L280.264 31.4795L279.824 31.8311C279.912 32.7393 280.205 33.1934 280.703 33.1934L281.582 33.1055L282.505 34.248L285.01 37.0605L286.724 38.5986L288.613 40.8398L288.35 41.9824L290.239 42.9932C290.474 43.5498 290.649 43.9014 290.767 44.0479C290.913 44.165 291.367 44.502 292.129 45.0586L294.106 47.2119L295.469 48.75L296.172 49.541V50.1123C296.172 50.6689 296.318 51.1377 296.611 51.5186L298.413 52.0898L299.248 52.7051L300.786 54.1553L305.269 56.9238L306.191 57.8467C306.309 57.8467 306.382 57.8613 306.411 57.8906C306.47 57.8906 306.514 57.9053 306.543 57.9346L309.312 57.4951H309.399C309.81 57.4951 310.381 57.8174 311.113 58.4619ZM291.689 10.3418C291.689 9.05273 291.323 8.14453 290.591 7.61719L289.185 6.51855L287.646 5.37598L286.196 5.28809L284.131 4.54102L283.691 4.45312H282.944L282.417 3.22266L281.23 3.04688L280.615 4.10156L274.419 3.57422L273.848 4.01367L273.145 3.92578L267.036 4.62891H266.113L265.41 5.46387C264.795 5.46387 264.37 5.71289 264.136 6.21094C263.901 6.67969 263.784 7.69043 263.784 9.24316L263.872 12.0996L263.96 13.9893V15.1758C263.11 15.8496 262.686 16.4209 262.686 16.8896C262.686 17.5928 263.228 18.0762 264.312 18.3398L264.663 19.3066L264.487 20.7568V22.0312L264.136 24.0967C264.224 24.7998 264.854 25.4004 266.025 25.8984L265.938 26.25L269.893 26.1621L270.464 26.6895L271.255 26.5137L272.705 26.3379L275.562 25.2393L276.572 25.6348L277.539 25.1514L281.494 23.7451L282.944 22.7344L285.933 21.46L288.086 17.9004L290.503 15.2637L290.679 13.8135L291.514 11.5723L291.689 10.3418ZM363.364 19.6582C363.247 19.9512 362.925 20.2295 362.397 20.4932C362.808 21.4014 363.013 21.9434 363.013 22.1191L362.837 25.7227L363.013 28.5791L362.485 30.6445L362.661 33.5449L362.397 37.5879L362.661 39.917L362.397 41.4551L362.573 45.5859L362.485 46.7725L362.222 46.333C361.724 46.7139 361.475 47.0654 361.475 47.3877C361.475 47.9736 361.899 48.5449 362.749 49.1016C362.983 50.1562 363.101 50.9619 363.101 51.5186C363.101 52.6904 362.866 53.8037 362.397 54.8584C361.958 55.8838 361.138 57.334 359.937 59.209L359.321 60.1758L357.607 61.1865L357.256 60.1758L355.19 57.0117L352.554 53.7158L350.576 50.2881L349.873 49.3652L350.049 48.3984C350.049 47.6953 349.536 46.9482 348.511 46.1572C347.075 44.9561 346.27 44.2236 346.094 43.96L343.677 39.6533L342.402 38.1152L341.611 35.874C341.113 34.6729 340.176 34.0723 338.799 34.0723L338.271 33.0176L335.723 28.8428L335.02 26.5137L333.569 24.8877L333.306 25.2393L332.603 24.7998C330.581 21.3721 328.662 19.1895 326.846 18.252C327.08 17.5195 327.197 16.9775 327.197 16.626C327.197 15.8936 326.919 15.5273 326.362 15.5273L325.396 15.8789C324.927 15.4102 324.531 15.1758 324.209 15.1758L323.33 15.6152L324.297 17.6807L323.242 18.0762L323.506 18.7793L323.154 20.6689L323.33 24.4482L323.066 25.7227L322.319 26.0742L322.407 27.1289L323.154 29.6777C323.213 29.7363 323.242 29.7803 323.242 29.8096C323.242 29.8096 323.242 29.8242 323.242 29.8535C323.242 30.3223 322.876 31.04 322.144 32.0068L322.495 33.8086L322.891 34.8193V47.7393L323.418 51.5186C323.418 51.5479 323.418 51.5771 323.418 51.6064C323.418 51.6357 323.389 51.709 323.33 51.8262L322.803 54.3311L322.891 54.8584C323.418 55.1514 323.682 55.4883 323.682 55.8691C323.682 56.25 322.964 57.4805 321.528 59.5605L321.001 60.3516L319.99 60.2637C319.434 60.9375 318.979 61.2744 318.628 61.2744H318.54L317.573 61.1865L316.826 61.3623L316.914 60.2637C317.002 59.4434 317.134 58.9014 317.31 58.6377L318.276 57.4072L319.023 56.3086L318.013 55.4297L318.276 54.4189L318.804 53.1445C318.511 52.2656 318.364 51.7676 318.364 51.6504C318.394 51.5918 318.408 51.5479 318.408 51.5186C318.438 51.46 318.452 51.4014 318.452 51.3428L319.111 49.0137L318.892 43.96C319.155 43.5205 319.609 43.2275 320.254 43.0811V42.6416L319.287 41.4551L319.463 40.4883L319.287 39.5654L319.551 37.0605C319.551 37.0312 319.536 37.002 319.507 36.9727C319.507 36.9434 319.492 36.9141 319.463 36.8848L318.892 34.9951L319.199 32.4463L319.023 30.6445C319.023 30.0586 319.434 29.4873 320.254 28.9307L320.166 27.876L319.551 26.4258C319.551 26.1328 319.639 25.708 319.814 25.1514C319.287 24.7119 319.023 24.2432 319.023 23.7451C319.023 23.2178 319.199 22.3096 319.551 21.0205L319.111 20.4053L319.023 19.1309L318.628 16.0986C318.628 15.8936 318.76 15.4687 319.023 14.8242V13.8135C319.023 12.0264 318.862 10.9277 318.54 10.5176L316.562 8.05664L316.914 7.08984L318.013 6.43066C318.745 6.02051 319.258 5.68359 319.551 5.41992C319.844 5.15625 320.078 4.77539 320.254 4.27734L321.001 3.83789L323.066 1.4209C323.184 1.30371 323.359 1.24512 323.594 1.24512C324.268 1.24512 324.78 1.65527 325.132 2.47559L327.109 6.34277L327.9 7.35352L328.647 8.71582L328.384 8.97949C329.087 9.68262 330.01 11.001 331.152 12.9346L333.394 16.7139C333.892 17.5928 334.141 18.1055 334.141 18.252C334.141 18.6035 334.009 18.9258 333.745 19.2188L335.547 20.2295L335.283 21.0205L336.03 21.9434L337.832 24.5361L339.15 25.8105L339.634 27.2607L343.589 31.4795L342.754 31.9189C342.9 32.5049 343.091 32.9004 343.325 33.1055C343.56 33.2812 344.028 33.4277 344.731 33.5449L346.797 36.4014L346.182 36.4893L347.368 37.3242C348.188 37.9102 348.716 38.3789 348.95 38.7305C349.185 39.082 349.346 39.6387 349.434 40.4004L350.049 41.0156L349.961 41.6309C349.961 42.2754 350.166 42.9639 350.576 43.6963L351.587 44.3555C352.847 44.9121 353.506 45.2344 353.564 45.3223L355.454 48.2227L356.421 48.8379L357.695 49.9365L358.135 48.9258L358.047 43.6084L358.97 41.4551C358.354 40.8105 358.047 40.2393 358.047 39.7412C358.047 39.4482 358.076 39.2432 358.135 39.126L358.706 37.3242L358.97 31.04L359.673 29.6777L359.146 28.3154L359.497 26.25V26.1621C359.497 25.7812 359.146 25.4443 358.442 25.1514L358.223 13.7256C358.633 13.6963 358.896 13.5938 359.014 13.418C359.16 13.2129 359.263 12.8174 359.321 12.2314L357.959 11.2207L357.783 9.68262C357.637 8.39355 357.446 7.54395 357.212 7.13379C357.007 6.72363 356.567 6.51855 355.894 6.51855C355.776 6.0498 355.718 5.69824 355.718 5.46387C355.718 4.37988 356.978 3.51563 359.497 2.87109C359.907 2.25586 360.259 1.83105 360.552 1.59668C360.874 1.3623 361.548 1.02539 362.573 0.585938C362.925 1.17187 363.101 1.71387 363.101 2.21191L362.925 3.48633L363.188 4.45312L363.101 6.16699L363.188 9.8584C363.188 10.5908 363.101 11.2207 362.925 11.748L362.573 13.5498V13.6377L363.276 16.5381L363.101 18.6914L363.364 19.6582ZM384.985 2.21191L384.81 3.57422L384.546 5.02441L383.667 6.51855L384.282 11.1328C384.282 11.748 383.945 12.7441 383.271 14.1211V14.9121L383.931 15.1758L383.843 16.5381L384.019 20.1416C384.019 20.8154 383.96 21.3135 383.843 21.6357C383.726 21.9287 383.447 22.2949 383.008 22.7344L383.667 23.7451L383.579 25.0635V26.25L382.656 27.7881L383.096 28.9307C383.359 29.5752 383.491 30 383.491 30.2051L383.271 32.6221V35.2588L382.656 37.3242V37.6758C382.656 38.1152 382.891 38.4814 383.359 38.7744V40.4004L383.491 41.3672L383.579 43.2568V43.96L382.744 46.4209L383.579 46.8604L383.271 47.5635L383.667 50.0244L383.491 54.1553L383.755 55.8691L383.843 57.0117C381.177 59.4141 379.346 60.6152 378.35 60.6152L377.822 60.5273L377.69 61.0107L376.108 61.3623L375.361 60.2637C375.918 59.2383 376.196 58.4326 376.196 57.8467V56.8359L377.339 52.9688V51.6504V50.1123L379.316 49.7607L379.404 49.3652C379.404 49.1016 379.258 48.7207 378.965 48.2227L377.91 48.3105L377.69 48.1348L377.427 48.3984L377.603 46.9482L377.69 44.9707L377.998 41.7188L377.91 40.0049L378.701 38.7744C378.174 38.2764 377.852 37.8955 377.734 37.6318C377.646 37.3389 377.603 36.8115 377.603 36.0498C377.603 35.2881 377.822 34.4824 378.262 33.6328L377.603 32.9297V31.6553L377.69 27.4365C377.69 27.1729 377.661 26.9824 377.603 26.8652L377.427 25.9863L377.339 25.0635C377.72 24.7119 377.91 24.3018 377.91 23.833L377.075 22.9102L377.427 22.207L377.075 18.9551L377.603 17.3291V17.1533C377.603 16.6846 377.31 16.1719 376.724 15.6152L376.636 14.7363L376.372 10.8691L376.636 9.24316L376.021 8.32031L376.108 6.91406V4.36523C376.431 3.83789 376.87 3.57422 377.427 3.57422L379.712 3.39844C380.063 3.33984 380.532 2.76855 381.118 1.68457L382.656 1.24512L384.106 0.673828C384.048 0.673828 384.253 0.732422 384.722 0.849609C384.897 1.49414 384.985 1.94824 384.985 2.21191ZM443.784 19.6582C443.667 19.9512 443.345 20.2295 442.817 20.4932C443.228 21.4014 443.433 21.9434 443.433 22.1191L443.257 25.7227L443.433 28.5791L442.905 30.6445L443.081 33.5449L442.817 37.5879L443.081 39.917L442.817 41.4551L442.993 45.5859L442.905 46.7725L442.642 46.333C442.144 46.7139 441.895 47.0654 441.895 47.3877C441.895 47.9736 442.319 48.5449 443.169 49.1016C443.403 50.1562 443.521 50.9619 443.521 51.5186C443.521 52.6904 443.286 53.8037 442.817 54.8584C442.378 55.8838 441.558 57.334 440.356 59.209L439.741 60.1758L438.027 61.1865L437.676 60.1758L435.61 57.0117L432.974 53.7158L430.996 50.2881L430.293 49.3652L430.469 48.3984C430.469 47.6953 429.956 46.9482 428.931 46.1572C427.495 44.9561 426.689 44.2236 426.514 43.96L424.097 39.6533L422.822 38.1152L422.031 35.874C421.533 34.6729 420.596 34.0723 419.219 34.0723L418.691 33.0176L416.143 28.8428L415.439 26.5137L413.989 24.8877L413.726 25.2393L413.022 24.7998C411.001 21.3721 409.082 19.1895 407.266 18.252C407.5 17.5195 407.617 16.9775 407.617 16.626C407.617 15.8936 407.339 15.5273 406.782 15.5273L405.815 15.8789C405.347 15.4102 404.951 15.1758 404.629 15.1758L403.75 15.6152L404.717 17.6807L403.662 18.0762L403.926 18.7793L403.574 20.6689L403.75 24.4482L403.486 25.7227L402.739 26.0742L402.827 27.1289L403.574 29.6777C403.633 29.7363 403.662 29.7803 403.662 29.8096C403.662 29.8096 403.662 29.8242 403.662 29.8535C403.662 30.3223 403.296 31.04 402.563 32.0068L402.915 33.8086L403.311 34.8193V47.7393L403.838 51.5186C403.838 51.5479 403.838 51.5771 403.838 51.6064C403.838 51.6357 403.809 51.709 403.75 51.8262L403.223 54.3311L403.311 54.8584C403.838 55.1514 404.102 55.4883 404.102 55.8691C404.102 56.25 403.384 57.4805 401.948 59.5605L401.421 60.3516L400.41 60.2637C399.854 60.9375 399.399 61.2744 399.048 61.2744H398.96L397.993 61.1865L397.246 61.3623L397.334 60.2637C397.422 59.4434 397.554 58.9014 397.729 58.6377L398.696 57.4072L399.443 56.3086L398.433 55.4297L398.696 54.4189L399.224 53.1445C398.931 52.2656 398.784 51.7676 398.784 51.6504C398.813 51.5918 398.828 51.5479 398.828 51.5186C398.857 51.46 398.872 51.4014 398.872 51.3428L399.531 49.0137L399.312 43.96C399.575 43.5205 400.029 43.2275 400.674 43.0811V42.6416L399.707 41.4551L399.883 40.4883L399.707 39.5654L399.971 37.0605C399.971 37.0312 399.956 37.002 399.927 36.9727C399.927 36.9434 399.912 36.9141 399.883 36.8848L399.312 34.9951L399.619 32.4463L399.443 30.6445C399.443 30.0586 399.854 29.4873 400.674 28.9307L400.586 27.876L399.971 26.4258C399.971 26.1328 400.059 25.708 400.234 25.1514C399.707 24.7119 399.443 24.2432 399.443 23.7451C399.443 23.2178 399.619 22.3096 399.971 21.0205L399.531 20.4053L399.443 19.1309L399.048 16.0986C399.048 15.8936 399.18 15.4687 399.443 14.8242V13.8135C399.443 12.0264 399.282 10.9277 398.96 10.5176L396.982 8.05664L397.334 7.08984L398.433 6.43066C399.165 6.02051 399.678 5.68359 399.971 5.41992C400.264 5.15625 400.498 4.77539 400.674 4.27734L401.421 3.83789L403.486 1.4209C403.604 1.30371 403.779 1.24512 404.014 1.24512C404.688 1.24512 405.2 1.65527 405.552 2.47559L407.529 6.34277L408.32 7.35352L409.067 8.71582L408.804 8.97949C409.507 9.68262 410.43 11.001 411.572 12.9346L413.813 16.7139C414.312 17.5928 414.561 18.1055 414.561 18.252C414.561 18.6035 414.429 18.9258 414.165 19.2188L415.967 20.2295L415.703 21.0205L416.45 21.9434L418.252 24.5361L419.57 25.8105L420.054 27.2607L424.009 31.4795L423.174 31.9189C423.32 32.5049 423.511 32.9004 423.745 33.1055C423.979 33.2812 424.448 33.4277 425.151 33.5449L427.217 36.4014L426.602 36.4893L427.788 37.3242C428.608 37.9102 429.136 38.3789 429.37 38.7305C429.604 39.082 429.766 39.6387 429.854 40.4004L430.469 41.0156L430.381 41.6309C430.381 42.2754 430.586 42.9639 430.996 43.6963L432.007 44.3555C433.267 44.9121 433.926 45.2344 433.984 45.3223L435.874 48.2227L436.841 48.8379L438.115 49.9365L438.555 48.9258L438.467 43.6084L439.39 41.4551C438.774 40.8105 438.467 40.2393 438.467 39.7412C438.467 39.4482 438.496 39.2432 438.555 39.126L439.126 37.3242L439.39 31.04L440.093 29.6777L439.565 28.3154L439.917 26.25V26.1621C439.917 25.7812 439.565 25.4443 438.862 25.1514L438.643 13.7256C439.053 13.6963 439.316 13.5938 439.434 13.418C439.58 13.2129 439.683 12.8174 439.741 12.2314L438.379 11.2207L438.203 9.68262C438.057 8.39355 437.866 7.54395 437.632 7.13379C437.427 6.72363 436.987 6.51855 436.313 6.51855C436.196 6.0498 436.138 5.69824 436.138 5.46387C436.138 4.37988 437.397 3.51563 439.917 2.87109C440.327 2.25586 440.679 1.83105 440.972 1.59668C441.294 1.3623 441.968 1.02539 442.993 0.585938C443.345 1.17187 443.521 1.71387 443.521 2.21191L443.345 3.48633L443.608 4.45312L443.521 6.16699L443.608 9.8584C443.608 10.5908 443.521 11.2207 443.345 11.748L442.993 13.5498V13.6377L443.696 16.5381L443.521 18.6914L443.784 19.6582ZM511.68 56.4844C511.68 57.3633 511.475 58.1689 511.064 58.9014L510.229 58.8135L509.614 58.9014L508.428 59.5605L505.396 59.1211L502.407 60.1758H497.837L492.168 60.8789H491.86L489.971 60.7031C488.418 61.4941 487.041 61.8896 485.84 61.8896L484.961 61.8018L482.148 61.4502L475.776 61.1865L474.062 60.791L471.646 60.3516L470.459 60.0879L470.107 58.9893C469.551 58.9893 469.126 58.8135 468.833 58.4619C468.159 58.7549 467.749 58.9014 467.603 58.9014C467.28 58.9014 466.738 58.667 465.977 58.1982L465.054 57.7588C464.995 56.9678 464.731 56.3086 464.263 55.7812C463.677 56.0156 463.252 56.1328 462.988 56.1328C462.812 56.1328 462.666 56.0742 462.549 55.957L462.109 55.5176L460.132 53.6279L458.945 51.2549L457.847 50.0244L456.616 48.2227L455.957 46.6846C456.396 45.8643 456.646 45.0586 456.704 44.2676L456.221 43.6084L454.639 43.3447L453.892 41.7188C453.599 41.2793 453.452 40.8691 453.452 40.4883C453.452 40.2246 453.481 39.9463 453.54 39.6533V39.5654L452.925 36.0498C452.866 35.8154 452.837 35.4346 452.837 34.9072C452.837 34.1748 452.983 33.3838 453.276 32.5342L452.749 31.6553L453.276 28.8428C453.364 27.7881 453.481 26.9824 453.628 26.4258C453.774 25.8398 454.038 25.2686 454.419 24.7119C454.36 24.5947 454.331 24.4482 454.331 24.2725C454.331 24.0674 454.521 23.6133 454.902 22.9102L455.166 21.9434L456.88 21.1963L456.792 19.6582C456.792 19.3066 456.851 19.0723 456.968 18.9551L459.209 16.0986L460.308 14.1211L461.45 13.1104L462.637 11.3965L464.79 9.77051L465.493 8.54004L469.668 6.82617L471.074 5.72754L472.7 5.46387L473.271 5.02441L474.062 4.45312L474.941 4.01367C476.523 3.42773 477.783 3.07617 478.721 2.95898L482.632 2.87109L484.521 2.03613L488.169 1.68457L490.454 1.24512L494.673 1.77246H495.288H496.035C496.797 2.62207 497.236 3.04688 497.354 3.04688C497.764 3.04688 498.159 2.76855 498.54 2.21191H498.979L499.155 1.86035L500.166 2.03613L502.671 3.13477L504.385 3.22266C505.117 3.22266 505.483 3.51563 505.483 4.10156C505.483 4.57031 505.059 4.96582 504.209 5.28809C503.301 5.99121 502.642 6.34277 502.231 6.34277L501.44 6.0791C500.884 7.22168 500.283 7.79297 499.639 7.79297H499.243L497.529 7.17773L495.552 6.65039L494.146 5.63965L492.08 5.1123L490.103 4.36523L484.961 4.76074L481.973 4.84863C480.303 4.93652 479.043 5.22949 478.193 5.72754L475.249 7.5293L472.349 8.8916L468.745 11.3965L467.207 12.0996L466.24 14.1211C464.805 14.3848 464.087 14.8828 464.087 15.6152C464.087 15.9668 464.204 16.333 464.438 16.7139L463.604 17.7686C463.252 18.3838 462.812 18.8379 462.285 19.1309L462.549 20.4053L462.109 21.46L460.659 26.1621L460.132 27.5244L459.736 29.1504L459.912 30.1172V31.04L459.648 31.8311L459.297 31.6553L459.473 32.3584C458.77 32.8271 458.418 33.252 458.418 33.6328C458.418 33.8965 458.652 34.292 459.121 34.8193L460.483 35.2588V36.4014C460.483 36.8408 460.571 37.2656 460.747 37.6758C460.19 38.1445 459.912 38.5693 459.912 38.9502C459.912 39.126 459.985 39.3018 460.132 39.4775L461.274 39.0381L461.714 39.917L462.637 42.9053L463.604 44.6191L463.252 46.2451L463.779 47.124H464.263C464.79 47.124 465.215 47.2852 465.537 47.6074C465.859 47.9297 466.182 48.5156 466.504 49.3652L466.855 50.2881L467.295 50.7275L466.24 51.3428L466.855 51.8262L468.481 51.4307L469.668 52.2656L470.547 52.793L471.558 53.7158L473.271 54.3311L476.304 56.2207L477.842 56.748L477.578 57.6709C478.633 57.7881 479.321 57.9053 479.644 58.0225L481.006 58.4619L484.697 58.5498L485.576 59.1211L486.499 58.7256L489.795 58.4619L491.597 58.1982L492.52 58.1104C492.93 58.1104 493.413 58.2568 493.97 58.5498L494.849 58.0225C495.786 57.6123 496.445 57.4072 496.826 57.4072H496.914L498.276 57.4951L499.99 57.2314L499.902 56.748L500.693 56.3965C501.455 56.1621 501.909 56.001 502.056 55.9131C502.231 55.7959 502.524 55.5322 502.935 55.1221L503.11 55.4297C504.136 55.0781 504.648 54.624 504.648 54.0674L504.297 52.7051L504.385 49.2773L504.033 44.3555L504.736 42.8174V42.4658C504.736 41.8506 504.414 41.3086 503.77 40.8398L503.594 39.917L503.418 38.291L503.594 37.3242L502.671 37.2363L499.331 36.9727L497.09 36.7969L496.211 36.8848L494.321 37.0605C494.204 37.0605 493.896 36.9727 493.398 36.7969L493.662 35.5225C494.072 35.4053 494.336 35.3027 494.453 35.2148C494.57 35.127 494.79 34.8047 495.112 34.248L495.771 33.5449C496.621 33.8965 497.427 34.0723 498.188 34.0723H498.892L509.263 33.457L510.493 33.5449C511.167 34.6582 511.504 35.5225 511.504 36.1377C511.504 36.5479 511.196 36.9141 510.581 37.2363V38.0273H511.152L511.064 39.6533L511.152 40.5762C511.152 41.0449 511.094 41.3965 510.977 41.6309C510.889 41.8359 510.669 42.085 510.317 42.3779L510.801 44.5312C511.211 45.0879 511.416 45.7764 511.416 46.5967C511.416 47.4463 511.299 48.252 511.064 49.0137C510.391 49.0723 509.951 49.2188 509.746 49.4531C509.541 49.6582 509.438 50.1416 509.438 50.9033L511.68 52.8809L511.592 55.6934L511.68 56.4844Z" fill="#F87972"/>
</svg>
